<svg width="30" height="30" viewBox="0 0 30 30" fill="none" xmlns="http://www.w3.org/2000/svg"><circle cx="15" cy="15" r="15" fill="#D40000"/><path d="M7.292 21.186V9.18H5.456L2 12.672l1.224 1.278 1.962-2.034v9.27h2.106zm6.964.216c2.682 0 4.428-1.8 4.428-4.032 0-2.556-1.854-3.87-4.014-3.87-1.422 0-2.682.864-3.222 1.674-.018-.108-.018-.216-.018-.342 0-2.106 1.17-3.96 3.168-3.96 1.152 0 1.836.396 2.466 1.062l.99-1.602C17.244 9.54 16.092 9 14.598 9c-3.474 0-5.292 2.736-5.292 6.21 0 3.33 1.422 6.192 4.95 6.192zm-.108-1.872c-1.854 0-2.556-1.512-2.682-2.808.612-.864 1.602-1.422 2.628-1.422 1.314 0 2.466.666 2.466 2.142 0 .972-.828 2.088-2.412 2.088zm13.744-3.798v-1.224h-3.33v-3.6H23.23v3.6H19.9v1.224h3.33v3.726h1.332v-3.726h3.33z" fill="#fff"/></svg>