<svg width="6" height="10" viewBox="0 0 6 10" fill="none" xmlns="http://www.w3.org/2000/svg"><mask id="a" maskUnits="userSpaceOnUse" x="0" y="0" width="7" height="10"><path d="M4.19 5L.22 8.78a.69.69 0 0 0 0 1.01.777.777 0 0 0 1.06 0l4.5-4.285a.69.69 0 0 0 0-1.01L1.28.209a.777.777 0 0 0-1.06 0 .69.69 0 0 0 0 1.01L4.19 5z" fill="#000"/></mask><g mask="url(#a)" fill="#000"><path d="M4.19 5L.22 8.78a.69.69 0 0 0 0 1.01.777.777 0 0 0 1.06 0l4.5-4.285a.69.69 0 0 0 0-1.01L1.28.209a.777.777 0 0 0-1.06 0 .69.69 0 0 0 0 1.01L4.19 5z"/><path d="M-6-3.572v17.143h18V-3.572H-6z"/></g></svg>