<?xml version="1.0" encoding="UTF-8" standalone="no"?>
<svg width="225px" height="59px" viewBox="0 0 225 59" version="1.1" xmlns="http://www.w3.org/2000/svg" xmlns:xlink="http://www.w3.org/1999/xlink" xmlns:sketch="http://www.bohemiancoding.com/sketch/ns">
    <!-- Generator: Sketch 3.3.3 (12081) - http://www.bohemiancoding.com/sketch -->
    <title>Logo</title>
    <desc>Created with Sketch.</desc>
    <defs></defs>
    <g id="UI-kit" stroke="none" stroke-width="1" fill="none" fill-rule="evenodd" sketch:type="MSPage">
        <g id="UI" sketch:type="MSArtboardGroup" transform="translate(-3499.000000, -322.000000)">
            <g id="Header-Copy" sketch:type="MSLayerGroup" transform="translate(3499.000000, 311.000000)">
                <g id="Logo-+-ОСНОВАНО" sketch:type="MSShapeGroup">
                    <g id="ОСНОВАНО--+-Logo" transform="translate(0.000000, 10.000000)">
                        <g id="Logo" transform="translate(0.000000, 1.000000)">
                            <rect id="Rectangle-29" fill="#C32420" x="0" y="0" width="60" height="59"></rect>
                            <path d="M48.1924697,19.299534 C44.6017197,16.252034 38.7189697,11.978284 34.7114697,9.50503402 C29.9204697,6.54903402 29.5634697,6.44803402 24.6094697,9.50503402 C20.6017197,11.978784 14.7187197,16.252534 11.1284697,19.300034 C6.83646972,22.942534 6.63021972,23.250534 8.00696972,28.906784 C9.12071972,33.483034 11.3674697,40.398534 13.1562197,44.755034 C15.2944697,49.963034 15.5237197,50.253534 21.3287197,50.693034 C26.0249697,51.048034 33.2964697,51.048034 37.9922197,50.693034 C43.6054697,50.268284 43.9539697,50.140284 46.1649697,44.755034 C47.9537197,40.398034 50.2002197,33.483034 51.3142197,28.906784 C52.6449697,23.437284 52.6307197,23.066534 48.1924697,19.299534 L48.1924697,19.299534 Z M46.4939697,27.586034 C45.4357197,31.933284 43.2754697,38.582784 41.5757197,42.722284 C40.5957197,45.108034 40.4034697,45.386784 37.6177197,45.597284 C33.1557197,45.934784 26.1644697,45.934784 21.7022197,45.597284 C19.1299697,45.403034 18.8057197,45.305784 17.7444697,42.721784 C16.0449697,38.582784 13.8847197,31.933284 12.8264697,27.585034 C12.2167197,25.078784 12.2087197,24.740284 14.3384697,22.932784 C17.7499697,20.037284 23.4059697,15.927784 27.2144697,13.577784 C29.4097197,12.223284 29.7289697,12.111534 32.1067197,13.578284 C35.9144697,15.927784 41.5704697,20.037284 44.9824697,22.933284 C46.9487197,24.602784 47.1542197,24.871284 46.4939697,27.586034 L46.4939697,27.586034 Z" id="Clip-2047" fill="#FFFFFF"></path>
                            <g id="Rectangle-29-+-РОС" transform="translate(63.000000, 0.000000)">
                                <rect id="Rectangle-29" fill="#0C359C" x="0" y="0" width="65" height="28"></rect>
                                <path d="M3.08725,3.51004015 L12.3654739,3.51004015 C13.6525217,3.51004015 14.7474565,3.70505355 15.6503109,4.0950862 C16.5531654,4.48511885 17.2879242,5.00015424 17.8546095,5.64020782 C18.4212947,6.2802614 18.8342964,7.0153119 19.0936269,7.84538139 C19.3529575,8.67545088 19.4826208,9.52050894 19.4826208,10.3805809 C19.4826208,11.2606546 19.3529575,12.110713 19.0936269,12.9307817 C18.8342964,13.7508503 18.4212947,14.4809005 17.8546095,15.1209541 C17.2879242,15.7610076 16.5531654,16.276043 15.6503109,16.6660757 C14.7474565,17.0561083 13.6525217,17.2511217 12.3654739,17.2511217 L7.61110451,17.2511217 L7.61110451,24.9317263 L3.08725,24.9317263 L3.08725,3.51004015 Z M11.1264564,13.5908336 C11.6451175,13.5908336 12.1445614,13.5508309 12.6248031,13.4708242 C13.1050449,13.3908175 13.5276513,13.2358068 13.892635,13.0057876 C14.2576187,12.7757683 14.5505618,12.450746 14.771473,12.0307108 C14.9923842,11.6106757 15.1028381,11.0606379 15.1028381,10.3805809 C15.1028381,9.70052401 14.9923842,9.15048622 14.771473,8.73045105 C14.5505618,8.31041589 14.2576187,7.98539356 13.892635,7.7553743 C13.5276513,7.52535505 13.1050449,7.3703444 12.6248031,7.2903377 C12.1445614,7.210331 11.6451175,7.17032825 11.1264564,7.17032825 L7.61110451,7.17032825 L7.61110451,13.5908336 L11.1264564,13.5908336 Z M30.9185055,25.4117641 C29.3017989,25.4117641 27.8604195,25.1267445 26.5943239,24.5566968 C25.3282284,23.9866491 24.2569328,23.2015951 23.3804052,22.2015114 C22.5038775,21.2014277 21.831883,20.0263469 21.3644016,18.6762339 C20.8969201,17.3261209 20.6631829,15.8710209 20.6631829,14.3108903 C20.6631829,12.730758 20.8969201,11.2506563 21.3644016,9.87054079 C21.831883,8.49042526 22.5038775,7.2903428 23.3804052,6.27025741 C24.2569328,5.25017202 25.3282284,4.45011704 26.5943239,3.87006848 C27.8604195,3.29001993 29.3017989,3 30.9185055,3 C32.5157337,3 33.9522437,3.29001993 35.2280784,3.87006848 C36.5039131,4.45011704 37.5800782,5.25017202 38.4566059,6.27025741 C39.3331336,7.2903428 40.0051281,8.49042526 40.4726095,9.87054079 C40.9400909,11.2506563 41.1738281,12.730758 41.1738281,14.3108903 C41.1738281,15.8710209 40.9400909,17.3261209 40.4726095,18.6762339 C40.0051281,20.0263469 39.3331336,21.2014277 38.4566059,22.2015114 C37.5800782,23.2015951 36.5039131,23.9866491 35.2280784,24.5566968 C33.9522437,25.1267445 32.5157337,25.4117641 30.9185055,25.4117641 L30.9185055,25.4117641 Z M30.9185055,21.4814547 C31.9508603,21.4814547 32.8273749,21.2764406 33.5480754,20.8664063 C34.268776,20.456372 34.853119,19.9113345 35.301122,19.2312776 C35.7491251,18.5512207 36.0753832,17.7861681 36.2799064,16.9360969 C36.4844295,16.0860258 36.5866895,15.2109656 36.5866895,14.3108903 C36.5866895,13.3708116 36.4844295,12.4607491 36.2799064,11.5806754 C36.0753832,10.7006017 35.7491251,9.91554779 35.301122,9.22549002 C34.853119,8.53543225 34.268776,7.98539446 33.5480754,7.57536014 C32.8273749,7.16532581 31.9508603,6.96031172 30.9185055,6.96031172 C29.8861507,6.96031172 29.0096362,7.16532581 28.2889356,7.57536014 C27.5682351,7.98539446 26.9838921,8.53543225 26.535889,9.22549002 C26.087886,9.91554779 25.7616278,10.7006017 25.5571047,11.5806754 C25.3525816,12.4607491 25.2503215,13.3708116 25.2503215,14.3108903 C25.2503215,15.2109656 25.3525816,16.0860258 25.5571047,16.9360969 C25.7616278,17.7861681 26.087886,18.5512207 26.535889,19.2312776 C26.9838921,19.9113345 27.5682351,20.456372 28.2889356,20.8664063 C29.0096362,21.2764406 29.8861507,21.4814547 30.9185055,21.4814547 L30.9185055,21.4814547 Z M52.6945953,25.4117641 C51.1001927,25.4117641 49.6786985,25.1267445 48.43007,24.5566968 C47.1814415,23.9866491 46.1249256,23.2015951 45.2604904,22.2015114 C44.3960553,21.2014277 43.7333317,20.0263469 43.2722996,18.6762339 C42.8112675,17.3261209 42.580755,15.8710209 42.580755,14.3108903 C42.580755,12.730758 42.8112675,11.2506563 43.2722996,9.87054079 C43.7333317,8.49042526 44.3960553,7.2903428 45.2604904,6.27025741 C46.1249256,5.25017202 47.1814415,4.45011704 48.43007,3.87006848 C49.6786985,3.29001993 51.1001927,3 52.6945953,3 C53.8087561,3 54.8748768,3.17001168 55.8929893,3.51004015 C56.9111017,3.85006861 57.818745,4.34510263 58.6159463,4.99515704 C59.4131475,5.64521146 60.0710689,6.45026678 60.5897299,7.41034715 C61.108391,8.37042752 61.4349505,9.47050311 61.5694182,10.7106069 L57.1896355,10.7106069 C57.1127968,10.1705617 56.9399123,9.67552769 56.670977,9.22549002 C56.4020416,8.77545235 56.0658774,8.3804252 55.6624744,8.04039674 C55.2590713,7.70036828 54.8028485,7.43535007 54.2937923,7.24533416 C53.784736,7.05531825 53.2516757,6.96031172 52.6945953,6.96031172 C51.6764828,6.96031172 50.8120607,7.16532581 50.1013029,7.57536014 C49.3905451,7.98539446 48.8142637,8.53543225 48.3724413,9.22549002 C47.9306189,9.91554779 47.6088618,10.7006017 47.4071603,11.5806754 C47.2054587,12.4607491 47.1046095,13.3708116 47.1046095,14.3108903 C47.1046095,15.2109656 47.2054587,16.0860258 47.4071603,16.9360969 C47.6088618,17.7861681 47.9306189,18.5512207 48.3724413,19.2312776 C48.8142637,19.9113345 49.3905451,20.456372 50.1013029,20.8664063 C50.8120607,21.2764406 51.6764828,21.4814547 52.6945953,21.4814547 C54.0776915,21.4814547 55.1582192,21.0414245 55.9362108,20.1613508 C56.7142024,19.2812771 57.1896346,18.1211974 57.3625216,16.6810769 L61.7423043,16.6810769 C61.6270463,18.0411907 61.3293009,19.2562742 60.8490592,20.3263638 C60.3688174,21.3964534 59.7349079,22.3115162 58.9473114,23.0715799 C58.159715,23.8316435 57.2376647,24.4116834 56.1811329,24.8117168 C55.124601,25.2117503 53.9624335,25.4117641 52.6945953,25.4117641 L52.6945953,25.4117641 Z" id="РОС" fill="#FFFFFF"></path>
                            </g>
                            <g id="Rectangle-29-+-Российская-система-качества" transform="translate(131.000000, 0.000000)">
                                <rect id="Rectangle-29" fill="#C32420" x="0" y="0" width="94" height="28"></rect>
                                <path d="M3.24926901,3.07236842 L5.83845029,3.07236842 C6.19761388,3.07236842 6.50316638,3.12463398 6.75511696,3.22916667 C7.00706754,3.33369935 7.21210935,3.47173404 7.37024854,3.64327485 C7.52838773,3.81481567 7.64363999,4.01181663 7.71600877,4.23428363 C7.78837755,4.45675063 7.8245614,4.68323471 7.8245614,4.91374269 C7.8245614,5.14961132 7.78837755,5.37743555 7.71600877,5.59722222 C7.64363999,5.8170089 7.52838773,6.01266971 7.37024854,6.18421053 C7.21210935,6.35575135 7.00706754,6.49378603 6.75511696,6.59831871 C6.50316638,6.7028514 6.19761388,6.75511696 5.83845029,6.75511696 L4.51169591,6.75511696 L4.51169591,8.81359649 L3.24926901,8.81359649 L3.24926901,3.07236842 Z M5.49269006,5.77412281 C5.63742762,5.77412281 5.77680245,5.76340167 5.91081871,5.74195906 C6.04483498,5.72051646 6.16276752,5.67897204 6.26461988,5.61732456 C6.36647224,5.55567708 6.44822094,5.46856781 6.50986842,5.35599415 C6.5715159,5.24342049 6.60233918,5.09600481 6.60233918,4.91374269 C6.60233918,4.73148057 6.5715159,4.58406489 6.50986842,4.47149123 C6.44822094,4.35891757 6.36647224,4.2718083 6.26461988,4.21016082 C6.16276752,4.14851334 6.04483498,4.10696892 5.91081871,4.08552632 C5.77680245,4.06408371 5.63742762,4.05336257 5.49269006,4.05336257 L4.51169591,4.05336257 L4.51169591,5.77412281 L5.49269006,5.77412281 Z M12.8981482,8.91812865 C12.5711485,8.91812865 12.2763171,8.86720324 12.0136453,8.76535088 C11.7509734,8.66349852 11.5258294,8.51742298 11.3382067,8.32711988 C11.1505839,8.13681679 11.0058485,7.90765241 10.9039961,7.63961988 C10.8021438,7.37158735 10.7512184,7.07139542 10.7512184,6.73903509 C10.7512184,6.40667475 10.8021438,6.10514268 10.9039961,5.83442982 C11.0058485,5.56371697 11.1505839,5.33321245 11.3382067,5.14290936 C11.5258294,4.95260626 11.7509734,4.80519058 12.0136453,4.70065789 C12.2763171,4.59612521 12.5711485,4.54385965 12.8981482,4.54385965 C13.2251479,4.54385965 13.5213194,4.59612521 13.7866716,4.70065789 C14.0520238,4.80519058 14.2785079,4.95260626 14.4661307,5.14290936 C14.6537534,5.33321245 14.7984888,5.56371697 14.9003412,5.83442982 C15.0021935,6.10514268 15.053119,6.40667475 15.053119,6.73903509 C15.053119,7.07139542 15.0021935,7.37158735 14.9003412,7.63961988 C14.7984888,7.90765241 14.6537534,8.13681679 14.4661307,8.32711988 C14.2785079,8.51742298 14.0520238,8.66349852 13.7866716,8.76535088 C13.5213194,8.86720324 13.2251479,8.91812865 12.8981482,8.91812865 L12.8981482,8.91812865 Z M12.8981482,8.06578947 C13.0911316,8.06578947 13.2532889,8.02826548 13.3846248,7.95321637 C13.5159607,7.87816727 13.6204919,7.77765658 13.6982213,7.65168129 C13.7759507,7.525706 13.8308966,7.38365089 13.8630605,7.2255117 C13.8952244,7.0673725 13.9113061,6.90521526 13.9113061,6.73903509 C13.9113061,6.57285492 13.8952244,6.40935753 13.8630605,6.24853801 C13.8308966,6.08771849 13.7759507,5.94566338 13.6982213,5.82236842 C13.6204919,5.69907346 13.5159607,5.59856277 13.3846248,5.52083333 C13.2532889,5.4431039 13.0911316,5.40423977 12.8981482,5.40423977 C12.7051648,5.40423977 12.5443477,5.4431039 12.4156921,5.52083333 C12.2870364,5.59856277 12.1838455,5.69907346 12.106116,5.82236842 C12.0283866,5.94566338 11.9734408,6.08771849 11.9412768,6.24853801 C11.9091129,6.40935753 11.8930312,6.57285492 11.8930312,6.73903509 C11.8930312,6.90521526 11.9091129,7.0673725 11.9412768,7.2255117 C11.9734408,7.38365089 12.0283866,7.525706 12.106116,7.65168129 C12.1838455,7.77765658 12.2870364,7.87816727 12.4156921,7.95321637 C12.5443477,8.02826548 12.7051648,8.06578947 12.8981482,8.06578947 L12.8981482,8.06578947 Z M20.1508286,8.91812865 C19.8345502,8.91812865 19.5477597,8.8658631 19.2904484,8.76133041 C19.0331372,8.65679772 18.8133538,8.51072219 18.6310917,8.32309942 C18.4488296,8.13547664 18.3067745,7.91167284 18.2049221,7.65168129 C18.1030698,7.39168973 18.0521443,7.10623937 18.0521443,6.79532164 C18.0521443,6.4736826 18.0990493,6.17483082 18.1928607,5.89875731 C18.2866721,5.6226838 18.4247068,5.38413843 18.6069689,5.18311404 C18.789231,4.98208964 19.0116947,4.82529296 19.2743666,4.7127193 C19.5370384,4.60014564 19.8372304,4.54385965 20.1749514,4.54385965 C20.4215413,4.54385965 20.6587465,4.57602307 20.8865742,4.64035088 C21.1144018,4.70467868 21.3181035,4.80250909 21.4976853,4.93384503 C21.6772671,5.06518097 21.8233426,5.2300185 21.9359163,5.42836257 C22.0484899,5.62670664 22.1128168,5.85721116 22.1288987,6.11988304 L21.0112087,6.11988304 C20.9361596,5.64278514 20.6547296,5.40423977 20.1669104,5.40423977 C19.9846483,5.40423977 19.8318721,5.44578418 19.7085771,5.52887427 C19.5852821,5.61196435 19.4847714,5.71917576 19.407042,5.8505117 C19.3293126,5.98184764 19.2743667,6.12792317 19.2422028,6.28874269 C19.2100389,6.44956221 19.1939572,6.60501874 19.1939572,6.75511696 C19.1939572,6.90521518 19.2100389,7.05799143 19.2422028,7.21345029 C19.2743667,7.36890916 19.3266323,7.50962413 19.3990011,7.63559942 C19.4713699,7.7615747 19.5692003,7.86476568 19.6924952,7.94517544 C19.8157902,8.0255852 19.9658861,8.06578947 20.1427876,8.06578947 C20.4161808,8.06578947 20.6265832,7.98940135 20.7740011,7.83662281 C20.921419,7.68384427 21.0138888,7.47880246 21.0514133,7.22149123 L22.1530215,7.22149123 C22.0779724,7.77363824 21.8635496,8.194443 21.5097467,8.48391813 C21.1559437,8.77339326 20.7029756,8.91812865 20.1508286,8.91812865 L20.1508286,8.91812865 Z M27.1542399,8.91812865 C26.8379615,8.91812865 26.551171,8.8658631 26.2938598,8.76133041 C26.0365486,8.65679772 25.8167652,8.51072219 25.6345031,8.32309942 C25.4522409,8.13547664 25.3101858,7.91167284 25.2083335,7.65168129 C25.1064811,7.39168973 25.0555557,7.10623937 25.0555557,6.79532164 C25.0555557,6.4736826 25.1024607,6.17483082 25.1962721,5.89875731 C25.2900835,5.6226838 25.4281181,5.38413843 25.6103803,5.18311404 C25.7926424,4.98208964 26.015106,4.82529296 26.2777779,4.7127193 C26.5404498,4.60014564 26.8406417,4.54385965 27.1783627,4.54385965 C27.4249526,4.54385965 27.6621579,4.57602307 27.8899855,4.64035088 C28.1178132,4.70467868 28.3215148,4.80250909 28.5010966,4.93384503 C28.6806784,5.06518097 28.826754,5.2300185 28.9393276,5.42836257 C29.0519013,5.62670664 29.1162281,5.85721116 29.1323101,6.11988304 L28.01462,6.11988304 C27.9395709,5.64278514 27.658141,5.40423977 27.1703218,5.40423977 C26.9880597,5.40423977 26.8352834,5.44578418 26.7119884,5.52887427 C26.5886935,5.61196435 26.4881828,5.71917576 26.4104534,5.8505117 C26.3327239,5.98184764 26.2777781,6.12792317 26.2456142,6.28874269 C26.2134503,6.44956221 26.1973686,6.60501874 26.1973686,6.75511696 C26.1973686,6.90521518 26.2134503,7.05799143 26.2456142,7.21345029 C26.2777781,7.36890916 26.3300436,7.50962413 26.4024124,7.63559942 C26.4747812,7.7615747 26.5726116,7.86476568 26.6959066,7.94517544 C26.8192015,8.0255852 26.9692975,8.06578947 27.146199,8.06578947 C27.4195921,8.06578947 27.6299945,7.98940135 27.7774124,7.83662281 C27.9248303,7.68384427 28.0173001,7.47880246 28.0548247,7.22149123 L29.1564329,7.22149123 C29.0813838,7.77363824 28.866961,8.194443 28.513158,8.48391813 C28.1593551,8.77339326 27.7063869,8.91812865 27.1542399,8.91812865 L27.1542399,8.91812865 Z M32.187622,4.65643275 L33.2811893,4.65643275 L33.2811893,7.47076023 L34.8491717,4.65643275 L36.1437624,4.65643275 L36.1437624,8.81359649 L35.0501951,8.81359649 L35.0501951,5.99926901 L33.4822127,8.81359649 L32.187622,8.81359649 L32.187622,4.65643275 Z M39.4000977,4.65643275 L40.4936649,4.65643275 L40.4936649,7.47076023 L42.0616474,4.65643275 L43.356238,4.65643275 L43.356238,8.81359649 L42.2626708,8.81359649 L42.2626708,5.99926901 L40.6946883,8.81359649 L39.4000977,8.81359649 L39.4000977,4.65643275 Z M41.3701269,4.15789474 C41.1825042,4.15789474 41.0069455,4.13645246 40.8434457,4.09356725 C40.6799458,4.05068205 40.5365506,3.98233478 40.4132556,3.88852339 C40.2899606,3.79471201 40.1921302,3.67543932 40.1197614,3.53070175 C40.0473927,3.38596419 40.0112088,3.20906537 40.0112088,3 L40.863548,3 C40.8742693,3.18226212 40.9171539,3.31627637 40.992203,3.40204678 C41.0672521,3.48781719 41.1932255,3.53070175 41.3701269,3.53070175 C41.5416678,3.53070175 41.6676412,3.48915734 41.7480509,3.40606725 C41.8284607,3.32297717 41.8713452,3.18762277 41.8767059,3 L42.7290451,3 C42.7290451,3.20906537 42.6928612,3.38596419 42.6204924,3.53070175 C42.5481237,3.67543932 42.4502932,3.79471201 42.3269983,3.88852339 C42.2037033,3.98233478 42.0589679,4.05068205 41.8927878,4.09356725 C41.7266076,4.13645246 41.5523891,4.15789474 41.3701269,4.15789474 L41.3701269,4.15789474 Z M48.5826026,8.91812865 C48.2663242,8.91812865 47.9795337,8.8658631 47.7222225,8.76133041 C47.4649113,8.65679772 47.2451279,8.51072219 47.0628658,8.32309942 C46.8806037,8.13547664 46.7385485,7.91167284 46.6366962,7.65168129 C46.5348438,7.39168973 46.4839184,7.10623937 46.4839184,6.79532164 C46.4839184,6.4736826 46.5308234,6.17483082 46.6246348,5.89875731 C46.7184462,5.6226838 46.8564808,5.38413843 47.038743,5.18311404 C47.2210051,4.98208964 47.4434688,4.82529296 47.7061406,4.7127193 C47.9688125,4.60014564 48.2690044,4.54385965 48.6067254,4.54385965 C48.8533154,4.54385965 49.0905206,4.57602307 49.3183482,4.64035088 C49.5461759,4.70467868 49.7498775,4.80250909 49.9294593,4.93384503 C50.1090411,5.06518097 50.2551167,5.2300185 50.3676903,5.42836257 C50.480264,5.62670664 50.5445908,5.85721116 50.5606728,6.11988304 L49.4429827,6.11988304 C49.3679336,5.64278514 49.0865037,5.40423977 48.5986845,5.40423977 C48.4164224,5.40423977 48.2636461,5.44578418 48.1403512,5.52887427 C48.0170562,5.61196435 47.9165455,5.71917576 47.8388161,5.8505117 C47.7610866,5.98184764 47.7061408,6.12792317 47.6739769,6.28874269 C47.641813,6.44956221 47.6257313,6.60501874 47.6257313,6.75511696 C47.6257313,6.90521518 47.641813,7.05799143 47.6739769,7.21345029 C47.7061408,7.36890916 47.7584063,7.50962413 47.8307751,7.63559942 C47.9031439,7.7615747 48.0009743,7.86476568 48.1242693,7.94517544 C48.2475642,8.0255852 48.3976602,8.06578947 48.5745617,8.06578947 C48.8479549,8.06578947 49.0583572,7.98940135 49.2057751,7.83662281 C49.353193,7.68384427 49.4456629,7.47880246 49.4831874,7.22149123 L50.5847956,7.22149123 C50.5097465,7.77363824 50.2953237,8.194443 49.9415207,8.48391813 C49.5877178,8.77339326 49.1347496,8.91812865 48.5826026,8.91812865 L48.5826026,8.91812865 Z M53.6159847,4.65643275 L54.7577976,4.65643275 L54.7577976,6.35307018 L56.2855754,4.65643275 L57.6284116,4.65643275 L55.8915695,6.48976608 L57.8535578,8.81359649 L56.4705169,8.81359649 L54.9990257,7.08479532 L54.7577976,7.3501462 L54.7577976,8.81359649 L53.6159847,8.81359649 L53.6159847,4.65643275 Z M61.8577002,8.91812865 C61.6593561,8.91812865 61.4744164,8.89400609 61.3028756,8.84576023 C61.1313348,8.79751438 60.9812388,8.7224664 60.8525832,8.62061404 C60.7239276,8.51876167 60.6234169,8.39010799 60.5510481,8.23464912 C60.4786793,8.07919026 60.4424955,7.89425058 60.4424955,7.67982456 C60.4424955,7.44395594 60.4840399,7.24963527 60.56713,7.09685673 C60.6502201,6.94407818 60.7574315,6.82212521 60.8887674,6.73099415 C61.0201034,6.63986309 61.1701993,6.57151582 61.3390598,6.52595029 C61.5079203,6.48038476 61.6781184,6.44420091 61.8496592,6.41739766 C62.0212001,6.39059441 62.190058,6.36915213 62.3562382,6.35307018 C62.5224184,6.33698822 62.669834,6.31286566 62.7984897,6.28070175 C62.9271453,6.24853785 63.0289961,6.20163286 63.1040452,6.13998538 C63.1790943,6.0783379 63.213938,5.98854835 63.2085774,5.87061404 C63.2085774,5.75267972 63.1884752,5.65618946 63.1482704,5.58114035 C63.1080655,5.50609124 63.0544598,5.44846511 62.9874516,5.40826023 C62.9204435,5.36805535 62.8427152,5.3412525 62.7542645,5.32785088 C62.6658138,5.31444925 62.5706636,5.30774854 62.4688113,5.30774854 C62.243664,5.30774854 62.0667651,5.35599367 61.9381095,5.45248538 C61.8094539,5.54897709 61.7344059,5.7097942 61.7129633,5.93494152 L60.5711505,5.93494152 C60.5872324,5.67226964 60.6542395,5.45114612 60.7721739,5.27156433 C60.8901082,5.09198253 61.0402041,4.94858728 61.2224663,4.84137427 C61.4047284,4.73416126 61.60843,4.65777313 61.8335774,4.6122076 C62.0587247,4.56664207 62.2892292,4.54385965 62.5250978,4.54385965 C62.7341632,4.54385965 62.9459057,4.55860122 63.1603318,4.5880848 C63.3747578,4.61756837 63.5704186,4.6751945 63.7473201,4.76096491 C63.9242215,4.84673532 64.0689569,4.96734815 64.1815306,5.12280702 C64.2941042,5.27826588 64.3503902,5.47928727 64.3503902,5.72587719 L64.3503902,7.88888889 C64.3503902,8.07651166 64.3611114,8.25609076 64.382554,8.42763158 C64.4039966,8.5991724 64.4415206,8.72782608 64.4951271,8.81359649 L63.3372323,8.81359649 C63.3157897,8.74926868 63.2983679,8.6836017 63.2849663,8.61659357 C63.2715646,8.54958543 63.2621836,8.48123817 63.256823,8.41154971 C63.0745609,8.59917248 62.8601381,8.73050645 62.6135481,8.80555556 C62.3669582,8.88060466 62.1150114,8.91812865 61.8577002,8.91812865 L61.8577002,8.91812865 Z M62.2838698,8.1622807 C62.5090171,8.1622807 62.6832356,8.12475671 62.8065306,8.0497076 C62.9298255,7.97465849 63.0209552,7.88486894 63.0799224,7.78033626 C63.1388896,7.67580357 63.1750734,7.56993231 63.188475,7.4627193 C63.2018767,7.35550629 63.2085774,7.26973716 63.2085774,7.20540936 L63.2085774,6.77923977 C63.1603315,6.82212497 63.1013652,6.85562853 63.0316768,6.87975146 C62.9619883,6.90387439 62.8842601,6.92397653 62.7984897,6.94005848 C62.7127192,6.95614043 62.6242698,6.96954186 62.5331388,6.98026316 C62.4420077,6.99098446 62.350878,7.00438588 62.259747,7.02046784 C62.1686159,7.03654979 62.0828468,7.05799207 62.002437,7.08479532 C61.9220273,7.11159857 61.8509997,7.14778242 61.7893522,7.19334795 C61.7277047,7.23891348 61.6781195,7.29653961 61.6405949,7.36622807 C61.6030704,7.43591653 61.5843084,7.52436594 61.5843084,7.63157895 C61.5843084,7.73879196 61.6030704,7.82590122 61.6405949,7.89290936 C61.6781195,7.95991749 61.7290449,8.01352319 61.7933727,8.05372807 C61.8577005,8.09393295 61.9327485,8.12207594 62.0185189,8.13815789 C62.1042893,8.15423985 62.1927387,8.1622807 62.2838698,8.1622807 L62.2838698,8.1622807 Z M68.5073104,7.25365497 C68.2124746,7.20540912 67.9725891,7.06335401 67.7876466,6.82748538 C67.6027042,6.59161675 67.5102343,6.30214596 67.5102343,5.95906433 C67.5102343,5.77680221 67.5437379,5.6066041 67.610746,5.44846491 C67.6777542,5.29032572 67.7729043,5.15229104 67.8961992,5.03435673 C68.0194942,4.91642241 68.1642296,4.82395258 68.3304098,4.75694444 C68.4965899,4.68993631 68.6815296,4.65643275 68.8852343,4.65643275 L71.4020472,4.65643275 L71.4020472,8.81359649 L70.2602343,8.81359649 L70.2602343,7.3501462 L69.7214916,7.3501462 L68.5877197,8.81359649 L67.1885969,8.81359649 L68.5073104,7.25365497 Z M70.2602343,5.48464912 L69.3516086,5.48464912 C69.0889367,5.48464912 68.9093576,5.53155411 68.8128659,5.6253655 C68.7163742,5.71917688 68.6681291,5.84381014 68.6681291,5.99926901 C68.6681291,6.16008852 68.7150341,6.28874221 68.8088454,6.38523392 C68.9026568,6.48172563 69.0835761,6.52997076 69.3516086,6.52997076 L70.2602343,6.52997076 L70.2602343,5.48464912 Z M5.09868421,16.9590643 C4.78240583,16.9590643 4.49561532,16.9067988 4.23830409,16.8022661 C3.98099287,16.6977334 3.76120949,16.5516579 3.57894737,16.3640351 C3.39668525,16.1764123 3.25463014,15.9526085 3.15277778,15.692617 C3.05092542,15.4326254 3,15.147175 3,14.8362573 C3,14.5146183 3.04690499,14.2157665 3.14071637,13.939693 C3.23452776,13.6636195 3.37256244,13.4250741 3.55482456,13.2240497 C3.73708668,13.0230253 3.95955034,12.8662286 4.22222222,12.753655 C4.4848941,12.6410813 4.78508603,12.5847953 5.12280702,12.5847953 C5.36939694,12.5847953 5.60660217,12.6169587 5.83442982,12.6812865 C6.06225747,12.7456144 6.26595914,12.8434448 6.44554094,12.9747807 C6.62512273,13.1061166 6.77119827,13.2709542 6.88377193,13.4692982 C6.99634559,13.6676423 7.06067243,13.8981468 7.07675439,14.1608187 L5.95906433,14.1608187 C5.88401522,13.6837208 5.60258529,13.4451754 5.11476608,13.4451754 C4.93250396,13.4451754 4.77972771,13.4867199 4.65643275,13.5698099 C4.53313779,13.6529 4.43262709,13.7601114 4.35489766,13.8914474 C4.27716823,14.0227833 4.22222238,14.1688588 4.19005848,14.3296784 C4.15789458,14.4904979 4.14181287,14.6459544 4.14181287,14.7960526 C4.14181287,14.9461508 4.15789458,15.0989271 4.19005848,15.254386 C4.22222238,15.4098448 4.27448794,15.5505598 4.34685673,15.6765351 C4.41922551,15.8025104 4.51705591,15.9057014 4.64035088,15.9861111 C4.76364584,16.0665209 4.91374181,16.1067251 5.09064327,16.1067251 C5.36403645,16.1067251 5.57443883,16.030337 5.72185673,15.8775585 C5.86927462,15.7247799 5.96174445,15.5197381 5.99926901,15.2624269 L7.10087719,15.2624269 C7.02582808,15.8145739 6.81140528,16.2353787 6.45760234,16.5248538 C6.1037994,16.8143289 5.65083122,16.9590643 5.09868421,16.9590643 L5.09868421,16.9590643 Z M10.1320663,12.6973684 L11.2256336,12.6973684 L11.2256336,15.5116959 L12.793616,12.6973684 L14.0882067,12.6973684 L14.0882067,16.8545322 L12.9946394,16.8545322 L12.9946394,14.0402047 L11.426657,16.8545322 L10.1320663,16.8545322 L10.1320663,12.6973684 Z M19.3145712,16.9590643 C18.9982929,16.9590643 18.7115024,16.9067988 18.4541911,16.8022661 C18.1968799,16.6977334 17.9770965,16.5516579 17.7948344,16.3640351 C17.6125723,16.1764123 17.4705172,15.9526085 17.3686648,15.692617 C17.2668124,15.4326254 17.215887,15.147175 17.215887,14.8362573 C17.215887,14.5146183 17.262792,14.2157665 17.3566034,13.939693 C17.4504148,13.6636195 17.5884495,13.4250741 17.7707116,13.2240497 C17.9529737,13.0230253 18.1754374,12.8662286 18.4381093,12.753655 C18.7007811,12.6410813 19.0009731,12.5847953 19.3386941,12.5847953 C19.585284,12.5847953 19.8224892,12.6169587 20.0503169,12.6812865 C20.2781445,12.7456144 20.4818462,12.8434448 20.661428,12.9747807 C20.8410098,13.1061166 20.9870853,13.2709542 21.099659,13.4692982 C21.2122326,13.6676423 21.2765595,13.8981468 21.2926414,14.1608187 L20.1749514,14.1608187 C20.0999023,13.6837208 19.8184723,13.4451754 19.3306531,13.4451754 C19.148391,13.4451754 18.9956147,13.4867199 18.8723198,13.5698099 C18.7490248,13.6529 18.6485141,13.7601114 18.5707847,13.8914474 C18.4930553,14.0227833 18.4381094,14.1688588 18.4059455,14.3296784 C18.3737816,14.4904979 18.3576999,14.6459544 18.3576999,14.7960526 C18.3576999,14.9461508 18.3737816,15.0989271 18.4059455,15.254386 C18.4381094,15.4098448 18.490375,15.5505598 18.5627438,15.6765351 C18.6351125,15.8025104 18.7329429,15.9057014 18.8562379,15.9861111 C18.9795329,16.0665209 19.1296288,16.1067251 19.3065303,16.1067251 C19.5799235,16.1067251 19.7903259,16.030337 19.9377438,15.8775585 C20.0851616,15.7247799 20.1776315,15.5197381 20.215156,15.2624269 L21.3167642,15.2624269 C21.2417151,15.8145739 21.0272923,16.2353787 20.6734894,16.5248538 C20.3196864,16.8143289 19.8667183,16.9590643 19.3145712,16.9590643 L19.3145712,16.9590643 Z M25.3611113,13.5577485 L23.9941522,13.5577485 L23.9941522,12.6973684 L27.8698832,12.6973684 L27.8698832,13.5577485 L26.5029241,13.5577485 L26.5029241,16.8545322 L25.3611113,16.8545322 L25.3611113,13.5577485 Z M32.694201,16.9590643 C32.3672013,16.9590643 32.0723699,16.9067988 31.809698,16.8022661 C31.5470262,16.6977334 31.3245625,16.5489776 31.1423004,16.3559942 C30.9600383,16.1630107 30.8193233,15.9325062 30.7201513,15.6644737 C30.6209792,15.3964412 30.5713939,15.1016098 30.5713939,14.7799708 C30.5713939,14.469053 30.6223194,14.1795822 30.7241717,13.9115497 C30.8260241,13.6435172 30.9707595,13.4116725 31.1583823,13.2160088 C31.346005,13.020345 31.5698088,12.8662286 31.8298004,12.753655 C32.0897919,12.6410813 32.3779226,12.5847953 32.694201,12.5847953 C33.0265613,12.5847953 33.3200525,12.6464419 33.5746834,12.7697368 C33.8293143,12.8930318 34.0410568,13.0578693 34.2099173,13.2642544 C34.3787778,13.4706394 34.5060914,13.7105249 34.5918618,13.9839181 C34.6776322,14.2573113 34.7205168,14.5414215 34.7205168,14.8362573 L34.7205168,14.9448099 C34.7205168,14.9796542 34.7178365,15.015838 34.7124758,15.0533626 L31.7132068,15.0533626 C31.7292888,15.4232475 31.8230987,15.691276 31.9946396,15.8574561 C32.1661804,16.0236363 32.4127666,16.1067251 32.7344056,16.1067251 C32.9649136,16.1067251 33.1632547,16.049099 33.3294349,15.933845 C33.4956151,15.818591 33.5974659,15.6966381 33.6349904,15.5679825 L34.6401074,15.5679825 C34.4792879,16.066523 34.2327017,16.4230009 33.9003413,16.6374269 C33.567981,16.8518529 33.1659382,16.9590643 32.694201,16.9590643 L32.694201,16.9590643 Z M33.570663,14.3296784 C33.5170564,14.0402032 33.4219063,13.8204199 33.2852097,13.6703216 C33.1485131,13.5202234 32.9407911,13.4451754 32.6620372,13.4451754 C32.4744145,13.4451754 32.3216382,13.4759987 32.2037039,13.5376462 C32.0857696,13.5992937 31.9906195,13.6756818 31.9182507,13.7668129 C31.8458819,13.8579439 31.7949565,13.9544342 31.7654729,14.0562865 C31.7359893,14.1581389 31.7185675,14.2492686 31.7132068,14.3296784 L33.570663,14.3296784 Z M37.7758287,12.6973684 L39.4322614,12.6973684 L40.2926416,15.7207602 L40.3248053,15.7207602 L41.1851854,12.6973684 L42.8416182,12.6973684 L42.8416182,16.8545322 L41.7641328,16.8545322 L41.7641328,13.6944444 L41.74001,13.6944444 L40.8474661,16.8545322 L39.7699807,16.8545322 L38.8774369,13.6944444 L38.8533141,13.6944444 L38.8533141,16.8545322 L37.7758287,16.8545322 L37.7758287,12.6973684 Z M47.3362576,16.9590643 C47.1379135,16.9590643 46.9529738,16.9349418 46.781433,16.8866959 C46.6098922,16.8384501 46.4597962,16.7634021 46.3311406,16.6615497 C46.202485,16.5596973 46.1019743,16.4310437 46.0296055,16.2755848 C45.9572368,16.1201259 45.9210529,15.9351863 45.9210529,15.7207602 C45.9210529,15.4848916 45.9625973,15.2905709 46.0456874,15.1377924 C46.1287775,14.9850139 46.2359889,14.8630609 46.3673248,14.7719298 C46.4986608,14.6807988 46.6487567,14.6124515 46.8176172,14.566886 C46.9864777,14.5213204 47.1566758,14.4851366 47.3282167,14.4583333 C47.4997575,14.4315301 47.6686154,14.4100878 47.8347956,14.3940058 C48.0009758,14.3779239 48.1483914,14.3538013 48.2770471,14.3216374 C48.4057027,14.2894735 48.5075535,14.2425685 48.5826026,14.1809211 C48.6576517,14.1192736 48.6924954,14.029484 48.6871348,13.9115497 C48.6871348,13.7936154 48.6670326,13.6971251 48.6268278,13.622076 C48.5866229,13.5470269 48.5330172,13.4894008 48.4660091,13.4491959 C48.3990009,13.408991 48.3212727,13.3821882 48.2328219,13.3687865 C48.1443712,13.3553849 48.0492211,13.3486842 47.9473687,13.3486842 C47.7222214,13.3486842 47.5453226,13.3969293 47.4166669,13.4934211 C47.2880113,13.5899128 47.2129633,13.7507299 47.1915207,13.9758772 L46.0497079,13.9758772 C46.0657898,13.7132053 46.132797,13.4920818 46.2507313,13.3125 C46.3686656,13.1329182 46.5187616,12.989523 46.7010237,12.8823099 C46.8832858,12.7750969 47.0869875,12.6987088 47.3121348,12.6531433 C47.5372821,12.6075777 47.7677866,12.5847953 48.0036552,12.5847953 C48.2127206,12.5847953 48.4244631,12.5995369 48.6388892,12.6290205 C48.8533152,12.658504 49.048976,12.7161302 49.2258775,12.8019006 C49.4027789,12.887671 49.5475143,13.0082838 49.660088,13.1637427 C49.7726617,13.3192016 49.8289476,13.5202229 49.8289476,13.7668129 L49.8289476,15.9298246 C49.8289476,16.1174473 49.8396688,16.2970264 49.8611114,16.4685673 C49.882554,16.6401081 49.920078,16.7687618 49.9736845,16.8545322 L48.8157898,16.8545322 C48.7943472,16.7902044 48.7769253,16.7245374 48.7635237,16.6575292 C48.750122,16.5905211 48.740741,16.5221738 48.7353804,16.4524854 C48.5531183,16.6401082 48.3386955,16.7714421 48.0921055,16.8464912 C47.8455156,16.9215403 47.5935688,16.9590643 47.3362576,16.9590643 L47.3362576,16.9590643 Z M47.7624272,16.2032164 C47.9875745,16.2032164 48.161793,16.1656924 48.285088,16.0906433 C48.408383,16.0155942 48.4995127,15.9258046 48.5584798,15.8212719 C48.617447,15.7167392 48.6536308,15.610868 48.6670324,15.503655 C48.6804341,15.396442 48.6871348,15.3106728 48.6871348,15.246345 L48.6871348,14.8201754 C48.6388889,14.8630606 48.5799227,14.8965642 48.5102342,14.9206871 C48.4405457,14.9448101 48.3628175,14.9649122 48.2770471,14.9809942 C48.1912767,14.9970761 48.1028272,15.0104775 48.0116962,15.0211988 C47.9205651,15.0319201 47.8294354,15.0453216 47.7383044,15.0614035 C47.6471733,15.0774855 47.5614042,15.0989277 47.4809944,15.125731 C47.4005847,15.1525342 47.3295571,15.1887181 47.2679096,15.2342836 C47.2062622,15.2798492 47.1566769,15.3374753 47.1191523,15.4071637 C47.0816278,15.4768522 47.0628658,15.5653016 47.0628658,15.6725146 C47.0628658,15.7797276 47.0816278,15.8668369 47.1191523,15.933845 C47.1566769,16.0008532 47.2076023,16.0544589 47.2719301,16.0946637 C47.3362579,16.1348686 47.4113059,16.1630116 47.4970763,16.1790936 C47.5828467,16.1951755 47.6712961,16.2032164 47.7624272,16.2032164 L47.7624272,16.2032164 Z M3.12865497,20.7383041 L4.27046784,20.7383041 L4.27046784,22.4349415 L5.79824561,20.7383041 L7.14108187,20.7383041 L5.40423977,22.5716374 L7.36622807,24.8954678 L5.98318713,24.8954678 L4.51169591,23.1666667 L4.27046784,23.4320175 L4.27046784,24.8954678 L3.12865497,24.8954678 L3.12865497,20.7383041 Z M11.3703704,25 C11.1720263,25 10.9870867,24.9758774 10.8155459,24.9276316 C10.644005,24.8793857 10.4939091,24.8043377 10.3652535,24.7024854 C10.2365978,24.600633 10.1360872,24.4719793 10.0637184,24.3165205 C9.99134959,24.1610616 9.95516574,23.9761219 9.95516574,23.7616959 C9.95516574,23.5258273 9.99671016,23.3315066 10.0798002,23.1787281 C10.1628903,23.0259495 10.2701017,22.9039966 10.4014377,22.8128655 C10.5327736,22.7217344 10.6828696,22.6533872 10.8517301,22.6078216 C11.0205906,22.5622561 11.1907887,22.5260723 11.3623295,22.499269 C11.5338703,22.4724658 11.7027283,22.4510235 11.8689084,22.4349415 C12.0350886,22.4188596 12.1825043,22.394737 12.3111599,22.3625731 C12.4398155,22.3304092 12.5416663,22.2835042 12.6167154,22.2218567 C12.6917646,22.1602092 12.7266083,22.0704197 12.7212476,21.9524854 C12.7212476,21.8345511 12.7011455,21.7380608 12.6609406,21.6630117 C12.6207357,21.5879626 12.56713,21.5303365 12.5001219,21.4901316 C12.4331137,21.4499267 12.3553855,21.4231238 12.2669347,21.4097222 C12.178484,21.3963206 12.0833339,21.3896199 11.9814815,21.3896199 C11.7563342,21.3896199 11.5794354,21.437865 11.4507798,21.5343567 C11.3221242,21.6308484 11.2470762,21.7916655 11.2256336,22.0168129 L10.0838207,22.0168129 C10.0999027,21.754141 10.1669098,21.5330175 10.2848441,21.3534357 C10.4027784,21.1738539 10.5528744,21.0304586 10.7351365,20.9232456 C10.9173986,20.8160326 11.1211003,20.7396445 11.3462476,20.6940789 C11.5713949,20.6485134 11.8018995,20.625731 12.0377681,20.625731 C12.2468335,20.625731 12.458576,20.6404726 12.673002,20.6699561 C12.887428,20.6994397 13.0830888,20.7570658 13.2599903,20.8428363 C13.4368918,20.9286067 13.5816272,21.0492195 13.6942008,21.2046784 C13.8067745,21.3601372 13.8630605,21.5611586 13.8630605,21.8077485 L13.8630605,23.9707602 C13.8630605,24.158383 13.8737816,24.3379621 13.8952242,24.5095029 C13.9166668,24.6810437 13.9541908,24.8096974 14.0077973,24.8954678 L12.8499026,24.8954678 C12.82846,24.83114 12.8110381,24.765473 12.7976365,24.6984649 C12.7842349,24.6314568 12.7748539,24.5631095 12.7694932,24.4934211 C12.5872311,24.6810438 12.3728083,24.8123778 12.1262184,24.8874269 C11.8796284,24.962476 11.6276816,25 11.3703704,25 L11.3703704,25 Z M11.79654,24.244152 C12.0216873,24.244152 12.1959059,24.2066281 12.3192008,24.1315789 C12.4424958,24.0565298 12.5336255,23.9667403 12.5925926,23.8622076 C12.6515598,23.7576749 12.6877436,23.6518037 12.7011453,23.5445906 C12.7145469,23.4373776 12.7212476,23.3516085 12.7212476,23.2872807 L12.7212476,22.8611111 C12.6730018,22.9039963 12.6140355,22.9374999 12.544347,22.9616228 C12.4746586,22.9857457 12.3969303,23.0058479 12.3111599,23.0219298 C12.2253895,23.0380118 12.1369401,23.0514132 12.045809,23.0621345 C11.954678,23.0728558 11.8635483,23.0862572 11.7724172,23.1023392 C11.6812861,23.1184211 11.595517,23.1398634 11.5151073,23.1666667 C11.4346975,23.1934699 11.3636699,23.2296538 11.3020225,23.2752193 C11.240375,23.3207848 11.1907897,23.378411 11.1532652,23.4480994 C11.1157406,23.5177879 11.0969786,23.6062373 11.0969786,23.7134503 C11.0969786,23.8206633 11.1157406,23.9077726 11.1532652,23.9747807 C11.1907897,24.0417888 11.2417151,24.0953945 11.3060429,24.1355994 C11.3703707,24.1758043 11.4454187,24.2039473 11.5311891,24.2200292 C11.6169595,24.2361112 11.7054089,24.244152 11.79654,24.244152 L11.79654,24.244152 Z M19.7407408,23.3676901 C19.6335278,23.399854 19.475391,23.4387181 19.2663256,23.4842836 C19.0572603,23.5298492 18.8401572,23.5526316 18.6150098,23.5526316 C18.0467809,23.5526316 17.6393775,23.4212976 17.3927876,23.1586257 C17.1461977,22.8959539 17.0229046,22.5394759 17.0229046,22.0891813 L17.0229046,20.7383041 L18.1566765,20.7383041 L18.1566765,21.8559942 C18.1566765,22.1615512 18.2156428,22.3732938 18.3335771,22.4912281 C18.4515114,22.6091624 18.6444919,22.6681287 18.9125245,22.6681287 C19.0787046,22.6681287 19.2341612,22.6547272 19.3788987,22.627924 C19.5236363,22.6011207 19.6442491,22.5743179 19.7407408,22.5475146 L19.7407408,20.7383041 L20.8825537,20.7383041 L20.8825537,24.8954678 L19.7407408,24.8954678 L19.7407408,23.3676901 Z M26.0606727,25 C25.733673,25 25.4388416,24.9477344 25.1761697,24.8432018 C24.9134979,24.7386691 24.6910342,24.5899132 24.5087721,24.3969298 C24.3265099,24.2039464 24.185795,23.9734419 24.0866229,23.7054094 C23.9874509,23.4373768 23.9378656,23.1425455 23.9378656,22.8209064 C23.9378656,22.5099887 23.9887911,22.2205179 24.0906434,21.9524854 C24.1924958,21.6844529 24.3372312,21.4526082 24.5248539,21.2569444 C24.7124767,21.0612807 24.9362805,20.9071643 25.1962721,20.7945906 C25.4562636,20.682017 25.7443943,20.625731 26.0606727,20.625731 C26.393033,20.625731 26.6865242,20.6873776 26.9411551,20.8106725 C27.195786,20.9339675 27.4075285,21.098805 27.576389,21.3051901 C27.7452495,21.5115751 27.8725631,21.7514606 27.9583335,22.0248538 C28.0441039,22.298247 28.0869884,22.5823572 28.0869884,22.877193 L28.0869884,22.9857456 C28.0869884,23.0205898 28.0843082,23.0567737 28.0789475,23.0942982 L25.0796785,23.0942982 C25.0957605,23.4641831 25.1895704,23.7322116 25.3611113,23.8983918 C25.5326521,24.064572 25.7792383,24.1476608 26.1008773,24.1476608 C26.3313853,24.1476608 26.5297264,24.0900347 26.6959066,23.9747807 C26.8620867,23.8595267 26.9639376,23.7375737 27.0014621,23.6089181 L28.0065791,23.6089181 C27.8457596,24.1074586 27.5991733,24.4639365 27.266813,24.6783626 C26.9344527,24.8927886 26.5324099,25 26.0606727,25 L26.0606727,25 Z M26.9371346,22.370614 C26.8835281,22.0811389 26.788378,21.8613555 26.6516814,21.7112573 C26.5149848,21.5611591 26.3072627,21.4861111 26.0285089,21.4861111 C25.8408861,21.4861111 25.6881099,21.5169344 25.5701756,21.5785819 C25.4522413,21.6402294 25.3570911,21.7166175 25.2847224,21.8077485 C25.2123536,21.8988796 25.1614282,21.9953699 25.1319446,22.0972222 C25.102461,22.1990746 25.0850392,22.2902043 25.0796785,22.370614 L26.9371346,22.370614 Z M33.1123296,25 C32.7960512,25 32.5092607,24.9477344 32.2519495,24.8432018 C31.9946383,24.7386691 31.7748549,24.5925935 31.5925928,24.4049708 C31.4103307,24.217348 31.2682755,23.9935442 31.1664232,23.7335526 C31.0645708,23.4735611 31.0136454,23.1881107 31.0136454,22.877193 C31.0136454,22.5555539 31.0605504,22.2567022 31.1543618,21.9806287 C31.2481732,21.7045551 31.3862079,21.4660098 31.56847,21.2649854 C31.7507321,21.063961 31.9731958,20.9071643 32.2358676,20.7945906 C32.4985395,20.682017 32.7987314,20.625731 33.1364524,20.625731 C33.3830424,20.625731 33.6202476,20.6578944 33.8480752,20.7222222 C34.0759029,20.78655 34.2796046,20.8843804 34.4591863,21.0157164 C34.6387681,21.1470523 34.7848437,21.3118898 34.8974173,21.5102339 C35.009991,21.708578 35.0743178,21.9390825 35.0903998,22.2017544 L33.9727097,22.2017544 C33.8976606,21.7246565 33.6162307,21.4861111 33.1284115,21.4861111 C32.9461494,21.4861111 32.7933731,21.5276555 32.6700782,21.6107456 C32.5467832,21.6938357 32.4462725,21.8010471 32.3685431,21.932383 C32.2908136,22.063719 32.2358678,22.2097945 32.2037039,22.370614 C32.17154,22.5314336 32.1554583,22.6868901 32.1554583,22.8369883 C32.1554583,22.9870865 32.17154,23.1398628 32.2037039,23.2953216 C32.2358678,23.4507805 32.2881334,23.5914955 32.3605021,23.7174708 C32.4328709,23.843446 32.5307013,23.946637 32.6539963,24.0270468 C32.7772913,24.1074565 32.9273872,24.1476608 33.1042887,24.1476608 C33.3776819,24.1476608 33.5880842,24.0712727 33.7355021,23.9184942 C33.88292,23.7657156 33.9753899,23.5606738 34.0129144,23.3033626 L35.1145226,23.3033626 C35.0394735,23.8555096 34.8250507,24.2763143 34.4712477,24.5657895 C34.1174448,24.8552646 33.6644766,25 33.1123296,25 L33.1123296,25 Z M39.1588696,21.5986842 L37.7919106,21.5986842 L37.7919106,20.7383041 L41.6676416,20.7383041 L41.6676416,21.5986842 L40.3006825,21.5986842 L40.3006825,24.8954678 L39.1588696,24.8954678 L39.1588696,21.5986842 Z M44.6023395,20.7383041 L46.9904974,20.7383041 C47.1727595,20.7383041 47.3442977,20.7584062 47.5051172,20.7986111 C47.6659368,20.838816 47.8066517,20.9004625 47.9272664,20.9835526 C48.047881,21.0666427 48.1430311,21.1751943 48.2127196,21.3092105 C48.282408,21.4432268 48.3172517,21.6013636 48.3172517,21.7836257 C48.3172517,21.9873305 48.2663263,22.1628891 48.164474,22.310307 C48.0626216,22.4577249 47.9259271,22.5689567 47.7543862,22.6440058 C47.9688123,22.702973 48.1483914,22.8142048 48.2931289,22.9777047 C48.4378665,23.1412045 48.5102342,23.3676886 48.5102342,23.6571637 C48.5102342,23.8608685 48.4740503,24.0391074 48.4016816,24.191886 C48.3293128,24.3446645 48.2288021,24.4733182 48.1001465,24.5778509 C47.9714909,24.6823836 47.8213949,24.761452 47.6498541,24.8150585 C47.4783133,24.868665 47.2960539,24.8954678 47.1030705,24.8954678 L44.6023395,24.8954678 L44.6023395,20.7383041 Z M46.5723687,24.1557018 C46.6688604,24.1557018 46.7626704,24.149001 46.8538014,24.1355994 C46.9449325,24.1221978 47.0253411,24.0967351 47.0950295,24.0592105 C47.164718,24.021686 47.221004,23.9667401 47.2638892,23.8943713 C47.3067744,23.8220026 47.3282167,23.7268524 47.3282167,23.6089181 C47.3282167,23.4909838 47.3054342,23.3944936 47.2598687,23.3194444 C47.2143032,23.2443953 47.1539968,23.1881093 47.0789476,23.1505848 C47.0038985,23.1130602 46.9181294,23.0875975 46.8216377,23.0741959 C46.725146,23.0607943 46.6259754,23.0540936 46.5241231,23.0540936 L45.7280705,23.0540936 L45.7280705,24.1557018 L46.5723687,24.1557018 Z M46.4839184,22.4108187 C46.5696888,22.4108187 46.6527777,22.4054581 46.7331874,22.3947368 C46.8135972,22.3840155 46.8859649,22.3612331 46.9502927,22.3263889 C47.0146205,22.2915447 47.0655459,22.2432995 47.1030705,22.181652 C47.140595,22.1200046 47.159357,22.0355756 47.159357,21.9283626 C47.159357,21.8265102 47.140595,21.7447615 47.1030705,21.683114 C47.0655459,21.6214666 47.0159606,21.5745616 46.9543131,21.5423977 C46.8926657,21.5102338 46.820298,21.4887915 46.7372079,21.4780702 C46.6541178,21.4673489 46.5696888,21.4619883 46.4839184,21.4619883 L45.7280705,21.4619883 L45.7280705,22.4108187 L46.4839184,22.4108187 Z M52.8681777,25 C52.6698336,25 52.484894,24.9758774 52.3133532,24.9276316 C52.1418123,24.8793857 51.9917164,24.8043377 51.8630608,24.7024854 C51.7344051,24.600633 51.6338944,24.4719793 51.5615257,24.3165205 C51.4891569,24.1610616 51.452973,23.9761219 51.452973,23.7616959 C51.452973,23.5258273 51.4945175,23.3315066 51.5776075,23.1787281 C51.6606976,23.0259495 51.767909,22.9039966 51.899245,22.8128655 C52.0305809,22.7217344 52.1806769,22.6533872 52.3495374,22.6078216 C52.5183979,22.5622561 52.688596,22.5260723 52.8601368,22.499269 C53.0316776,22.4724658 53.2005356,22.4510235 53.3667157,22.4349415 C53.5328959,22.4188596 53.6803116,22.394737 53.8089672,22.3625731 C53.9376228,22.3304092 54.0394736,22.2835042 54.1145227,22.2218567 C54.1895719,22.1602092 54.2244156,22.0704197 54.2190549,21.9524854 C54.2190549,21.8345511 54.1989528,21.7380608 54.1587479,21.6630117 C54.118543,21.5879626 54.0649373,21.5303365 53.9979292,21.4901316 C53.930921,21.4499267 53.8531928,21.4231238 53.764742,21.4097222 C53.6762913,21.3963206 53.5811412,21.3896199 53.4792888,21.3896199 C53.2541415,21.3896199 53.0772427,21.437865 52.9485871,21.5343567 C52.8199315,21.6308484 52.7448835,21.7916655 52.7234409,22.0168129 L51.581628,22.0168129 C51.59771,21.754141 51.6647171,21.5330175 51.7826514,21.3534357 C51.9005857,21.1738539 52.0506817,21.0304586 52.2329438,20.9232456 C52.4152059,20.8160326 52.6189076,20.7396445 52.8440549,20.6940789 C53.0692022,20.6485134 53.2997067,20.625731 53.5355754,20.625731 C53.7446407,20.625731 53.9563833,20.6404726 54.1708093,20.6699561 C54.3852353,20.6994397 54.5808961,20.7570658 54.7577976,20.8428363 C54.9346991,20.9286067 55.0794345,21.0492195 55.1920081,21.2046784 C55.3045818,21.3601372 55.3608678,21.5611586 55.3608678,21.8077485 L55.3608678,23.9707602 C55.3608678,24.158383 55.3715889,24.3379621 55.3930315,24.5095029 C55.4144741,24.6810437 55.4519981,24.8096974 55.5056046,24.8954678 L54.3477099,24.8954678 C54.3262673,24.83114 54.3088454,24.765473 54.2954438,24.6984649 C54.2820422,24.6314568 54.2726612,24.5631095 54.2673005,24.4934211 C54.0850384,24.6810438 53.8706156,24.8123778 53.6240257,24.8874269 C53.3774357,24.962476 53.1254889,25 52.8681777,25 L52.8681777,25 Z M53.2943473,24.244152 C53.5194946,24.244152 53.6937132,24.2066281 53.8170081,24.1315789 C53.9403031,24.0565298 54.0314328,23.9667403 54.0903999,23.8622076 C54.1493671,23.7576749 54.1855509,23.6518037 54.1989526,23.5445906 C54.2123542,23.4373776 54.2190549,23.3516085 54.2190549,23.2872807 L54.2190549,22.8611111 C54.1708091,22.9039963 54.1118428,22.9374999 54.0421543,22.9616228 C53.9724659,22.9857457 53.8947376,23.0058479 53.8089672,23.0219298 C53.7231968,23.0380118 53.6347474,23.0514132 53.5436163,23.0621345 C53.4524852,23.0728558 53.3613556,23.0862572 53.2702245,23.1023392 C53.1790934,23.1184211 53.0933243,23.1398634 53.0129146,23.1666667 C52.9325048,23.1934699 52.8614772,23.2296538 52.7998298,23.2752193 C52.7381823,23.3207848 52.688597,23.378411 52.6510725,23.4480994 C52.6135479,23.5177879 52.5947859,23.6062373 52.5947859,23.7134503 C52.5947859,23.8206633 52.6135479,23.9077726 52.6510725,23.9747807 C52.688597,24.0417888 52.7395224,24.0953945 52.8038502,24.1355994 C52.868178,24.1758043 52.943226,24.2039473 53.0289964,24.2200292 C53.1147668,24.2361112 53.2032162,24.244152 53.2943473,24.244152 L53.2943473,24.244152 Z" id="Российская-система-качества" fill="#FFFFFF"></path>
                            </g>
                            <g id="Rectangle-29-+-КАЧЕСТВО" transform="translate(63.000000, 31.000000)">
                                <rect id="Rectangle-29" fill="#C32420" x="0" y="0" width="162" height="28"></rect>
                                <path d="M21.4942745,24.34568 L22,25 L16.3201821,25 L9.05462822,15.4544818 L7.52655539,17.1708683 L7.52655539,25 L3,25 L3,3.5 L7.52655539,3.5 L7.52655539,12.1120448 L15.5705615,3.5 L21.2215478,3.5 L12.3414264,12.5035014 L21.4942745,24.34568 L29.2765043,3.5 L34.0626791,3.5 L42,25 L37.1543696,25 L35.5490688,20.2121849 L27.6117479,20.2121849 L25.9469914,25 L21.25,25 L21.4942745,24.34568 L21.4942745,24.34568 Z M34.3302292,16.6890756 L31.6547278,8.79971989 L31.5952722,8.79971989 L28.8305874,16.6890756 L34.3302292,16.6890756 Z M52.8455752,16.8396359 C52.3317083,16.9600846 51.7091482,17.0905689 50.9778761,17.2310924 C50.246604,17.371616 49.4856972,17.4418768 48.6951327,17.4418768 C47.4104656,17.4418768 46.2740462,17.3113925 45.2858407,17.0504202 C44.2976352,16.7894478 43.467555,16.3628648 42.7955752,15.7706583 C42.1235955,15.1784518 41.6146772,14.4055837 41.2688053,13.4520308 C40.9229334,12.498478 40.75,11.3291386 40.75,9.94397759 L40.75,3.5 L45.3747788,3.5 L45.3747788,10.0042017 C45.3747788,11.3090635 45.7354684,12.222453 46.4568584,12.7443978 C47.1782484,13.2663425 48.1120887,13.5273109 49.2584071,13.5273109 C50.0094433,13.5273109 50.7110587,13.4670874 51.3632743,13.3466387 C52.01549,13.2261899 52.5095853,13.1258174 52.8455752,13.0455182 L52.8455752,3.5 L57.5,3.5 L57.5,25 L52.8455752,25 L52.8455752,16.8396359 Z M60.994,3.5 L77.010059,3.5 L77.010059,7.47478992 L65.7028413,7.47478992 L65.7028413,12.0819328 L76.0802878,12.0819328 L76.0802878,15.7556022 L65.7028413,15.7556022 L65.7028413,21.0252101 L77.25,21.0252101 L77.25,25 L60.994,25 L60.994,3.5 Z M85.2026316,24.6415663 C83.9319485,24.0692742 82.8567713,23.2811295 81.9770677,22.2771084 C81.097364,21.2730873 80.4229347,20.0933803 79.9537594,18.7379518 C79.4845841,17.3825233 79.25,15.9216946 79.25,14.3554217 C79.25,12.7690684 79.4845841,11.2831395 79.9537594,9.89759036 C80.4229347,8.51204127 81.097364,7.30723404 81.9770677,6.28313253 C82.8567713,5.25903102 83.9319485,4.4558262 85.2026316,3.87349398 C86.4733146,3.29116175 87.9199167,3 89.5424812,3 C90.6763215,3 91.761273,3.17068102 92.7973684,3.51204819 C93.8334638,3.85341536 94.7571388,4.35039834 95.5684211,5.00301205 C96.3797033,5.65562575 97.0492455,6.4638506 97.5770677,7.42771084 C98.1048899,8.39157108 98.4372174,9.49597771 98.5740602,10.7409639 L94.1169173,10.7409639 C94.0387214,10.1987925 93.8627833,9.70180949 93.5890977,9.25 C93.3154122,8.79819051 92.9733103,8.40160813 92.562782,8.06024096 C92.1522536,7.7188738 91.6879725,7.4528122 91.1699248,7.26204819 C90.6518771,7.07128419 90.1094013,6.97590361 89.5424812,6.97590361 C88.5063858,6.97590361 87.6266953,7.18172485 86.9033835,7.59337349 C86.1800716,8.00502214 85.5936113,8.55722545 85.143985,9.25 C84.6943587,9.94277455 84.3669183,10.7309193 84.1616541,11.6144578 C83.95639,12.4979964 83.8537594,13.4116419 83.8537594,14.3554217 C83.8537594,15.2590407 83.95639,16.1375459 84.1616541,16.9909639 C84.3669183,17.8443818 84.6943587,18.6124464 85.143985,19.2951807 C85.5936113,19.9779151 86.1800716,20.5250983 86.9033835,20.936747 C87.6266953,21.3483956 88.5063858,21.5542169 89.5424812,21.5542169 C90.950007,21.5542169 92.0496201,21.1124542 92.8413534,20.2289157 C93.6330867,19.3453771 94.1169164,18.1807301 94.2928571,16.7349398 L98.75,16.7349398 C98.6327062,18.1004084 98.3297017,19.3202758 97.8409774,20.3945783 C97.3522532,21.4688809 96.7071469,22.3875464 95.9056391,23.1506024 C95.1041313,23.9136584 94.1657948,24.4959819 93.0906015,24.8975904 C92.0154082,25.2991988 90.8327132,25.5 89.5424812,25.5 C87.9199167,25.5 86.4733146,25.2138583 85.2026316,24.6415663 Z M105.810256,7.47478992 L99.5,7.47478992 L99.5,3.5 L116.75,3.5 L116.75,7.47478992 L110.439744,7.47478992 L110.439744,25 L105.810256,25 L105.810256,7.47478992 Z M118.5,3.5 L128.473244,3.5 C129.482447,3.5 130.402588,3.59033523 131.233696,3.7710084 C132.064803,3.95168158 132.777171,4.24778039 133.370819,4.65931373 C133.964468,5.07084706 134.424539,5.61787707 134.751045,6.30042017 C135.077552,6.98296326 135.240803,7.82609209 135.240803,8.82983193 C135.240803,9.91387097 134.9984,10.8172233 134.513587,11.539916 C134.028774,12.2626087 133.31146,12.8548063 132.361622,13.3165266 C133.667649,13.6979478 134.642207,14.3654247 135.285326,15.3189776 C135.928445,16.2725304 136.25,17.4217953 136.25,18.7668067 C136.25,19.8508458 136.042226,20.7893284 135.626672,21.5822829 C135.211118,22.3752374 134.652108,23.0226399 133.949624,23.5245098 C133.24714,24.0263797 132.445726,24.3977579 131.54536,24.6386555 C130.644993,24.879553 129.719904,25 128.770067,25 L118.5,25 L118.5,3.5 Z M128.146739,21.3263305 C128.60187,21.3263305 129.037205,21.2811629 129.452759,21.1908263 C129.868313,21.1004897 130.234391,20.949931 130.551003,20.7391457 C130.867616,20.5283603 131.119913,20.2422987 131.307901,19.8809524 C131.49589,19.519606 131.589883,19.0578926 131.589883,18.4957983 C131.589883,17.3916845 131.283169,16.6037605 130.669732,16.1320028 C130.056296,15.6602451 129.244988,15.4243697 128.235786,15.4243697 L123.160117,15.4243697 L123.160117,21.3263305 L128.146739,21.3263305 Z M127.879599,12.202381 C128.710706,12.202381 129.393392,12.001636 129.927676,11.6001401 C130.461959,11.1986441 130.729097,10.546223 130.729097,9.64285714 C130.729097,9.14098722 130.640051,8.72946006 130.461957,8.40826331 C130.283862,8.08706655 130.046406,7.83613536 129.749582,7.65546218 C129.452758,7.47478901 129.111415,7.34932341 128.725543,7.27906162 C128.339672,7.20879984 127.938965,7.17366947 127.523411,7.17366947 L123.160117,7.17366947 L123.160117,12.202381 L127.879599,12.202381 Z M148.066554,25.5 C146.440195,25.5 144.990209,25.2138583 143.716554,24.6415663 C142.442899,24.0692742 141.365207,23.2811295 140.483446,22.2771084 C139.601685,21.2730873 138.925678,20.0933803 138.455405,18.7379518 C137.985133,17.3825233 137.75,15.9216946 137.75,14.3554217 C137.75,12.7690684 137.985133,11.2831395 138.455405,9.89759036 C138.925678,8.51204127 139.601685,7.30723404 140.483446,6.28313253 C141.365207,5.25903102 142.442899,4.4558262 143.716554,3.87349398 C144.990209,3.29116175 146.440195,3 148.066554,3 C149.673319,3 151.118406,3.29116175 152.401858,3.87349398 C153.68531,4.4558262 154.767901,5.25903102 155.649662,6.28313253 C156.531423,7.30723404 157.20743,8.51204127 157.677703,9.89759036 C158.147975,11.2831395 158.383108,12.7690684 158.383108,14.3554217 C158.383108,15.9216946 158.147975,17.3825233 157.677703,18.7379518 C157.20743,20.0933803 156.531423,21.2730873 155.649662,22.2771084 C154.767901,23.2811295 153.68531,24.0692742 152.401858,24.6415663 C151.118406,25.2138583 149.673319,25.5 148.066554,25.5 Z M148.066554,21.5542169 C149.105073,21.5542169 149.986821,21.3483956 150.711824,20.936747 C151.436828,20.5250983 152.02466,19.9779151 152.475338,19.2951807 C152.926016,18.6124464 153.254222,17.8443818 153.459966,16.9909639 C153.66571,16.1375459 153.768581,15.2590407 153.768581,14.3554217 C153.768581,13.4116419 153.66571,12.4979964 153.459966,11.6144578 C153.254222,10.7309193 152.926016,9.94277455 152.475338,9.25 C152.02466,8.55722545 151.436828,8.00502214 150.711824,7.59337349 C149.986821,7.18172485 149.105073,6.97590361 148.066554,6.97590361 C147.028035,6.97590361 146.146287,7.18172485 145.421284,7.59337349 C144.69628,8.00502214 144.108448,8.55722545 143.65777,9.25 C143.207092,9.94277455 142.878886,10.7309193 142.673142,11.6144578 C142.467398,12.4979964 142.364527,13.4116419 142.364527,14.3554217 C142.364527,15.2590407 142.467398,16.1375459 142.673142,16.9909639 C142.878886,17.8443818 143.207092,18.6124464 143.65777,19.2951807 C144.108448,19.9779151 144.69628,20.5250983 145.421284,20.936747 C146.146287,21.3483956 147.028035,21.5542169 148.066554,21.5542169 L148.066554,21.5542169 Z" id="КАЧЕСТВО" fill="#FFFFFF"></path>
                            </g>
                        </g>
                    </g>
                </g>
            </g>
        </g>
    </g>
</svg>