<svg width="2117" height="400" viewBox="0 0 2117 400" xmlns="http://www.w3.org/2000/svg"><title>Group 5</title><g fill="none" fill-rule="evenodd"><path d="M.5 272.5h2116V.5H.5v272z" stroke="#979797" fill="#FFF"/><path fill="#0C359C" d="M286 251h522V22H286z"/><path d="M380.22 133.32c-6.49 0-13.45-.46-20.18-1.16V82.28c7.65-.23 14.61-.46 20.41-.46 19.49 0 29.93 8.35 29.93 25.29 0 18.09-13.22 26.21-30.16 26.21m-2.55-78.18c-11.37 0-37.12.46-46.17.46V218h28.54v-58.69c6.96.69 16.24.69 21.11.69 38.74 0 59.39-25.05 59.39-52.66 0-26.68-15.08-52.2-62.87-52.2m156.14 138.73c-30.4 0-54.29-24.59-54.29-57.07 0-33.64 23.2-57.07 54.29-57.07 30.62 0 54.51 23.43 54.51 57.07 0 32.02-20.41 57.07-54.51 57.07m0-140.82c-49.88 0-84.45 36.66-84.45 83.75 0 50.58 36.19 83.75 84.45 83.75 48.25 0 84.67-35.03 84.67-83.75 0-50.57-36.42-83.75-84.67-83.75m219.46 127.83c-11.13 8.58-24.82 12.99-38.51 12.99-33.17 0-56.14-23.2-56.14-57.07 0-35.26 22.73-57.07 52.89-57.07 16.24 0 26.92 4.41 36.66 10.9l12.76-21.11c-10.67-9.74-28.3-16.47-49.42-16.47-53.59 0-83.05 37.12-83.05 83.75 0 50.58 34.1 83.75 83.75 83.75 21.11 0 41.76-7.42 51.97-18.33l-10.91-21.34z" fill="#FFF"/><path fill="#C32420" d="M833 251h1262V22H833z"/><path d="M941.59 131.23l66.81-75.63h-34.33l-64.03 77.03V55.6H881.5V218h28.54v-83.75L976.39 218h36.19zm128.76 18.56l23.9-57.76 23.66 57.76h-47.56zm37.12-94.65h-25.06L1013.74 218h28.77l16.94-41.53h69.36l16.94 41.53h30.39l-68.67-162.86zm157.06.46v69.83c-8.12 5.57-18.56 10.44-31.08 10.44-16.01 0-28.54-7.42-28.54-33.4V55.6h-28.54v54.99c0 38.74 24.83 51.96 49.42 51.96 17.4 0 31.09-5.56 38.74-11.13V218h28.54V55.6h-28.54zm100.69 135.72v-41.99h58.46v-26.68h-58.46V82.28h65.42V55.6h-93.96V218h96.28v-26.68zm216.22-10.44c-11.14 8.58-24.82 12.99-38.51 12.99-33.18 0-56.14-23.2-56.14-57.07 0-35.26 22.73-57.07 52.89-57.07 16.24 0 26.91 4.41 36.66 10.9l12.76-21.11c-10.68-9.74-28.31-16.47-49.42-16.47-53.59 0-83.05 37.12-83.05 83.75 0 50.58 34.1 83.75 83.75 83.75 21.11 0 41.76-7.42 51.96-18.33l-10.9-21.34zm17.45-125.28v26.68h52.66V218h28.54V82.28h52.66V55.6zm208.58 136.65c-8.12 0-14.84-.7-18.79-1.16v-42.92h20.19c17.86 0 28.3 6.96 28.3 20.65 0 15.31-10.44 23.43-29.7 23.43zm-18.79-109.97c5.11-.46 11.37-.69 17.87-.69 15.31 0 25.52 6.96 25.52 20.18 0 14.85-10.91 21.58-24.13 21.58h-19.26V82.28zm48.49 50.11v-.46c13.92-6.5 23.2-18.33 23.2-36.89 0-22.5-14.62-40.13-53.36-40.13-16.24 0-37.81.69-46.86 1.16v161.7c9.51.69 30.39 1.16 45.24 1.16 34.33 0 60.32-15.31 60.32-48.72 0-21.58-12.53-33.87-28.54-37.82zm137.07 61.48c-30.39 0-54.28-24.59-54.28-57.07 0-33.64 23.2-57.07 54.28-57.07 30.63 0 54.52 23.43 54.52 57.07 0 32.02-20.41 57.07-54.52 57.07m0-140.82c-49.87 0-84.44 36.66-84.44 83.75 0 50.58 36.19 83.75 84.44 83.75 48.26 0 84.68-35.03 84.68-83.75 0-50.57-36.42-83.75-84.68-83.75" fill="#FFF"/><path d="M37.41 304.45v66.15h16.9v-50.28h28.23v50.28h16.9v-66.15zm115.1 52.04c-10.29 0-17.94-7.94-17.94-18.97 0-11.46 7.94-18.81 17.94-18.81 10.29 0 18.08 7.64 18.08 18.81 0 11.47-7.64 18.97-18.08 18.97m0-53.66c-21.91 0-36.02 14.85-36.02 34.69 0 19.85 14.11 34.7 36.02 34.7 21.9 0 36.01-14.85 36.01-34.7 0-19.84-14.11-34.69-36.01-34.69m83.79 53.66c-5.59 0-9.41-.88-13.97-3.82v-26.76c4.12-4.56 9.41-7.2 15.14-7.2 11.18 0 17.35 7.64 17.35 18.23 0 11.02-6.76 19.55-18.52 19.55m6.47-53.66c-8.53 0-16.32 3.53-20.44 7.94v-6.32h-16.9V400h16.9v-31.02c3.82 2.21 9.56 3.24 15.44 3.24 21.17 0 34.98-15.58 34.98-35.72 0-19.56-11.76-33.67-29.98-33.67m37.48 1.62v16.9h21.76v49.25h16.9v-49.25h21.61v-16.9zm109.51 46.75c-2.05 2.94-5.73 6.02-12.79 6.02-5.29 0-9.4-2.79-9.4-7.79 0-5.58 4.99-8.23 10.58-8.23 4.85 0 8.67 1.03 11.61 3.23v6.77zm-10.58-48.37c-8.67 0-17.64 2.94-23.37 6.32l4.26 12.35c4.85-2.2 9.7-4.56 17.35-4.56 9.85 0 12.79 6.03 12.34 17.06-3.23-2.36-9.11-4.27-14.99-4.27-13.38 0-24.11 6.91-24.11 21.47 0 12.78 8.67 20.28 20.73 20.28 8.97 0 16.02-3.53 19.55-8.52v7.64h14.7v-40.28c0-17.49-6.91-27.49-26.46-27.49zm56.45 1.62l-1.03 20.58c-1.47 25.58-9.26 31.02-15 30.43l1.47 16.46c17.79 0 26.61-7.49 29.85-43.51l.44-7.06h17.49v49.25h16.91v-66.15h-50.13zm147.59 50.42h-24.55c2.94-4.12 6.62-13.82 7.94-27.78l.44-6.77h16.17v34.55zm16.91 0v-50.42h-48.81l-1.03 15.87c-.88 15-4.55 28.38-9.26 34.55h-8.38v31.17h15.73V370.6h46.9v15.44h15.87v-31.17h-11.02zm34.69-50.42l-1.03 20.58c-1.47 25.58-9.26 31.02-15 30.43l1.47 16.46c17.79 0 26.61-7.49 29.85-43.51l.44-7.06h17.49v49.25h16.91v-66.15h-50.13zm108.34 33.81h-8.82c-5.3 0-10.74-3.68-10.74-9.12 0-4.99 3.83-9.99 12.06-9.99h7.5v19.11zm-4.71-33.81c-23.81 0-32.93 10.73-32.93 23.52 0 10.88 7.06 17.05 12.79 19.11l-17.64 23.52h19.41l13.67-19.85h9.41v19.85h16.9v-66.15h-21.61zm120.99 0l-11.91 36.01c-1.18 3.39-1.77 6.62-2.35 9.71-1.03-3.24-1.92-6.32-3.24-9.56l-15.43-36.16h-20.29l30.58 66.15-1.47 3.53c-2.8 6.91-5.88 10.29-10.15 10.29-2.64 0-5.14-1.32-6.91-2.35l-5.44 12.79c3.83 2.79 8.24 5.14 14.26 5.14 9.71 0 15.88-5.73 25.58-29.4l26.02-66.15h-19.25zm90.84 0l-21.32 27.64-22.49-27.64h-15.29v66.15h16.91v-40.43l20.14 24.7h.44l19.55-24.7v40.43h16.91v-66.15zm81.88 0v24.99h-28.96v-24.99h-16.91v66.15h16.91v-25.28h28.96v25.28h16.9v-66.15zm69.82 52.04c-10.29 0-17.93-7.94-17.93-18.97 0-11.46 7.94-18.81 17.93-18.81 10.29 0 18.08 7.64 18.08 18.81 0 11.47-7.64 18.97-18.08 18.97m0-53.66c-21.9 0-36.01 14.85-36.01 34.69 0 19.85 14.11 34.7 36.01 34.7s36.02-14.85 36.02-34.7c0-19.84-14.12-34.69-36.02-34.69m53.07 1.62v66.15h16.9v-50.28h27.49v-15.87zm87.17 52.04c-10.29 0-17.94-7.94-17.94-18.97 0-11.46 7.94-18.81 17.94-18.81 10.29 0 18.08 7.64 18.08 18.81 0 11.47-7.64 18.97-18.08 18.97m0-53.66c-21.91 0-36.02 14.85-36.02 34.69 0 19.85 14.11 34.7 36.02 34.7 21.9 0 36.01-14.85 36.01-34.7 0-19.84-14.11-34.69-36.01-34.69m86.73 1.62v66.15h16.91v-50.28h28.22v50.28h16.91v-66.15zm115.1 52.04c-10.29 0-17.93-7.94-17.93-18.97 0-11.46 7.93-18.81 17.93-18.81 10.29 0 18.08 7.64 18.08 18.81 0 11.47-7.64 18.97-18.08 18.97m0-53.66c-21.9 0-36.02 14.85-36.02 34.69 0 19.85 14.12 34.7 36.02 34.7 21.9 0 36.02-14.85 36.02-34.7 0-19.84-14.12-34.69-36.02-34.69m53.07 67.77h16.899v-66.15h-16.899v66.15zm37.191-34.69l25.429-31.46h-21.32l-23.81 32.78 26.17 33.37h22.05l-28.519-34.69zm84.519-31.46l-11.9 36.01c-1.18 3.39-1.77 6.62-2.36 9.71-1.03-3.24-1.91-6.32-3.23-9.56l-15.44-36.16h-20.28l30.57 66.15-1.47 3.53c-2.79 6.91-5.88 10.29-10.14 10.29-2.64 0-5.14-1.32-6.91-2.35l-5.44 12.79c3.82 2.79 8.23 5.14 14.26 5.14 9.7 0 15.88-5.73 25.58-29.4l26.02-66.15h-19.26zm31.75 0v66.15h16.91v-50.28h28.22v50.28h16.91v-66.15zm118.04 46.75c-2.06 2.94-5.73 6.02-12.79 6.02-5.29 0-9.41-2.79-9.41-7.79 0-5.58 5-8.23 10.59-8.23 4.85 0 8.67 1.03 11.61 3.23v6.77zm-10.58-48.37c-8.68 0-17.64 2.94-23.38 6.32l4.27 12.35c4.85-2.2 9.7-4.56 17.34-4.56 9.85 0 12.79 6.03 12.35 17.06-3.23-2.36-9.11-4.27-14.99-4.27-13.38 0-24.11 6.91-24.11 21.47 0 12.78 8.67 20.28 20.73 20.28 8.96 0 16.02-3.53 19.55-8.52v7.64h14.7v-40.28c0-17.49-6.91-27.49-26.46-27.49zm39.1 1.62v16.9h21.76v49.25h16.9v-49.25h21.61v-16.9zm85.4 26.9c1.771-8.67 7.21-14.41 17.35-14.41 9.7 0 15.29 6.33 15.14 14.41h-32.49zm49.399 2.21c0-18.53-14.259-30.73-31.309-30.73-21.76 0-34.99 15.44-34.99 34.69 0 20.88 14.26 34.7 35.57 34.7 9.27 0 18.67-2.65 25.29-8.24l-4.85-11.9c-3.82 3.08-10.589 6.02-18.67 6.02-10.44 0-18.38-5.43-19.85-15.43h47.78c.73-2.5 1.029-5 1.029-9.11zm24.101-29.11l-1.03 20.58c-1.47 25.58-9.26 31.02-14.991 30.43l1.471 16.46c17.79 0 26.61-7.49 29.84-43.51l.439-7.06h17.5v49.25h16.901v-66.15h-50.13zm108.34 33.81h-8.82c-5.29 0-10.73-3.68-10.73-9.12 0-4.99 3.82-9.99 12.05-9.99h7.5v19.11zm-4.7-33.81c-23.821 0-32.93 10.73-32.93 23.52 0 10.88 7.05 17.05 12.79 19.11l-17.64 23.52h19.4l13.67-19.85h9.41v19.85h16.91v-66.15h-21.61z" fill="#0C359C"/><path d="M223.8 135.36c4.95-20.39 4.9-21.77-11.61-35.82-13.34-11.37-35.21-27.3-50.11-36.53-17.81-11.02-19.14-11.4-37.55 0-14.9 9.23-36.77 25.16-50.12 36.53-15.95 13.58-16.71 14.73-11.59 35.82 4.13 17.07 12.48 42.86 19.13 59.1 7.95 19.42 8.81 20.5 30.38 22.15 17.46 1.31 44.49 1.31 61.95 0 20.87-1.59 22.16-2.07 30.38-22.15 6.64-16.25 15-42.03 19.14-59.1zM27 250.6v-229h232v229H27zM149.92 82.65c14 8.67 34.78 23.81 47.3 34.48 1.26 1.07 3.95 3.36 5.89 5.17-.48 2.35-1.24 5.45-1.76 7.62-3.87 15.97-11.81 40.48-18.06 55.78-.63 1.54-1.96 4.79-3.08 7.2-2.36.27-5.5.51-7.67.67-16.4 1.24-42.08 1.24-58.45 0-1.64-.12-5.12-.39-7.74-.7-.98-2.19-2.18-5.12-3.02-7.16-6.24-15.24-14.17-39.74-18.06-55.8-.4-1.62-1.23-5.07-1.75-7.68 1.77-1.61 4.19-3.67 5.87-5.1 12.5-10.65 33.28-25.79 47.3-34.48 1.39-.86 4.34-2.69 6.64-3.98 2.07 1.18 4.73 2.83 6.59 3.98z" fill="#C32420"/></g></svg>